<svg height="512" viewBox="0 0 128 128" width="512" xmlns="http://www.w3.org/2000/svg"><g><g><path d="m58.262 48.028h10.198v10.198h-10.198z" fill="#36607d"/><path d="m27.657 82.503h11.637v11.637h-11.637z" fill="#36607d"/><path d="m15.9 69.361v37.921a11.756 11.756 0 0 0 11.757-11.757v-14.407a11.757 11.757 0 0 0 -11.757-11.757z" fill="#9bdb34"/><path d="m39.294 85.011h24.193v5.819h-24.193z" fill="#4980fa"/><path d="m47.135 71.619h32.604v5.819h-32.604z" fill="#4980fa" transform="matrix(0 1 -1 0 137.965 11.091)"/><circle cx="63.487" cy="87.921" fill="#9bdb34" r="8.878"/><path d="m96.215 40.11-10.715-2.61-2.4 9.819 10.72 2.614a5.055 5.055 0 0 0 2.4-9.823z" fill="#f9ed4a"/><path d="m32.997 33.272h54.329v15.853h-54.329z" fill="#36607d" transform="matrix(.972 .237 -.237 .972 11.47 -13.077)"/><path d="m86.432 48.131-45.182-11.015 3.998-16.398 54.065 13.18z" fill="#4980fa"/><g fill="#36607d"><path d="m112.514 47.485-5.978-1.457a1.75 1.75 0 0 0 -.83 3.4l5.979 1.457a1.75 1.75 0 1 0 .829-3.4z"/><path d="m107.56 44.739a1.738 1.738 0 0 0 .908-.255l4.262-2.59a1.75 1.75 0 1 0 -1.817-2.991l-4.263 2.591a1.75 1.75 0 0 0 .91 3.245z"/><path d="m106.712 51.688a1.75 1.75 0 0 0 -2.991 1.819l2.591 4.263a1.751 1.751 0 0 0 2.992-1.819z"/></g></g><g fill="#001d9b"><path d="m71.6 91.948a1.748 1.748 0 0 0 -2.455.316 7.529 7.529 0 0 1 -.571.654 1.75 1.75 0 1 0 2.5 2.449 10.808 10.808 0 0 0 .84-.965 1.751 1.751 0 0 0 -.314-2.454z"/><path d="m97.379 38.643 3.231-3.571a1.749 1.749 0 0 0 -.882-2.874l-31.357-7.644a1.75 1.75 0 1 0 -.829 3.4l28.5 6.948-10.208 11.283-42.469-10.355 3.169-13 6.792 1.656a1.75 1.75 0 0 0 .829-3.4l-8.492-2.07a1.75 1.75 0 0 0 -2.115 1.284l-1.584 6.5-5.9-1.439a1.75 1.75 0 0 0 -2.115 1.286l-3.756 15.4a1.75 1.75 0 0 0 1.286 2.114l25.035 6.1v7.956a1.75 1.75 0 0 0 1.75 1.75h.515v18.44a10.632 10.632 0 0 0 -5.919 9.514 10.816 10.816 0 0 0 .066 1.159h-11.882v-2.318h6.156a1.75 1.75 0 1 0 0-3.5h-6.156v-.762a1.749 1.749 0 0 0 -1.75-1.75h-9.9a13.514 13.514 0 0 0 -13.494-13.139 1.75 1.75 0 0 0 0 3.5 10.019 10.019 0 0 1 10.007 10.007v14.407a10.018 10.018 0 0 1 -10.007 10.007 1.75 1.75 0 0 0 0 3.5 13.522 13.522 0 0 0 13.507-13.507v-11.272h8.137v8.138h-4.068a1.75 1.75 0 0 0 0 3.5h5.818a1.75 1.75 0 0 0 1.75-1.75v-1.561h12.905a10.632 10.632 0 0 0 9.538 5.969 1.75 1.75 0 0 0 0-3.5 7.129 7.129 0 1 1 7.129-7.128 1.75 1.75 0 0 0 3.5 0 10.631 10.631 0 0 0 -6.02-9.563v-13.858a1.75 1.75 0 0 0 -3.5 0v12.851a10.164 10.164 0 0 0 -2.318.015v-17.39h6.182a1.75 1.75 0 0 0 1.75-1.75v-4.617l14.052 3.426a1.75 1.75 0 0 0 .829-3.4l-51.084-12.455 2.927-12 4.2 1.024-1.584 6.496a1.749 1.749 0 0 0 1.286 2.114l45.182 11.018 7.388 1.8a6.8 6.8 0 0 0 3.973-12.99zm-30.669 17.833h-6.7v-5.353l6.7 1.633zm31.519-10.671a3.311 3.311 0 0 1 -3.994 2.427l-4.534-1.1 5.044-5.574 1.055.258a3.307 3.307 0 0 1 2.429 3.994z"/><path d="m60.112 26.143.831.2a1.751 1.751 0 1 0 .831-3.4l-.831-.2a1.751 1.751 0 0 0 -.831 3.4z"/><path d="m112.514 47.485-5.978-1.457a1.75 1.75 0 1 0 -.829 3.4l5.978 1.457a1.75 1.75 0 1 0 .829-3.4z"/><path d="m107.561 44.739a1.737 1.737 0 0 0 .907-.255l4.262-2.59a1.75 1.75 0 1 0 -1.817-2.991l-4.263 2.591a1.75 1.75 0 0 0 .911 3.245z"/><path d="m106.712 51.688a1.75 1.75 0 0 0 -2.991 1.819l2.591 4.263a1.751 1.751 0 0 0 2.992-1.819z"/></g></g></svg>