<svg height="512" viewBox="0 0 128 128" width="512" xmlns="http://www.w3.org/2000/svg"><g><g><path d="m87.031 35.275a19.136 19.136 0 0 0 -7.331 1.455 23.772 23.772 0 0 0 -46.5 9.9 13.628 13.628 0 0 0 2.179 27.081h51.652a19.219 19.219 0 1 0 0-38.437z" fill="#4980fa"/><circle cx="21.925" cy="93.395" fill="#de5b5b" r="6.025"/><circle cx="106.075" cy="93.395" fill="#4980fa" r="6.025"/><g><circle cx="53.25" cy="103.704" fill="#9bdb34" r="6.025"/><circle cx="74.75" cy="103.704" fill="#f9ed4a" r="6.025"/></g></g><g fill="#001d9b"><path d="m92.847 38.016c.245.087.488.178.729.276a1.75 1.75 0 0 0 1.311-3.246c-.288-.116-.58-.227-.874-.33a1.75 1.75 0 1 0 -1.166 3.3z"/><path d="m55.672 23.541a1.75 1.75 0 0 0 .078 3.5h.08c.232-.011.467-.016.7-.016a1.75 1.75 0 0 0 0-3.5c-.286-.004-.573.002-.858.016z"/><path d="m49.212 25.029a18.528 18.528 0 0 0 -11.2 17.014 1.75 1.75 0 0 0 3.5 0 15.03 15.03 0 0 1 9.091-13.8 1.75 1.75 0 1 0 -1.388-3.213z"/><path d="m37.667 78.25a1.75 1.75 0 0 0 -1.75 1.75v11.645h-6.423a7.775 7.775 0 1 0 0 3.5h8.173a1.751 1.751 0 0 0 1.75-1.75v-13.395a1.751 1.751 0 0 0 -1.75-1.75zm-15.742 19.42a4.275 4.275 0 1 1 4.275-4.27 4.28 4.28 0 0 1 -4.275 4.27z"/><path d="m106.074 85.62a7.782 7.782 0 0 0 -7.568 6.025h-6.423v-16.824a20.95 20.95 0 0 0 8.959-35.929 1.75 1.75 0 1 0 -2.34 2.6 17.468 17.468 0 0 1 -11.671 30.47h-51.645a11.878 11.878 0 0 1 -1.9-23.6 1.749 1.749 0 0 0 1.437-2.062 22.024 22.024 0 0 1 21.609-26.279 21.9 21.9 0 0 1 21.468 17.098 1.75 1.75 0 0 0 2.374 1.228 17.368 17.368 0 0 1 6.661-1.322 1.75 1.75 0 0 0 0-3.5 20.832 20.832 0 0 0 -6.132.917 25.523 25.523 0 0 0 -49.687 10.835 15.38 15.38 0 0 0 4.17 30.185h16.114v20.674a7.766 7.766 0 1 0 8.569 3.831 1.75 1.75 0 1 0 -3.069 1.683 4.276 4.276 0 1 1 -3.751-2.22 1.75 1.75 0 0 0 1.751-1.75v-22.218h32.031c.524 0 1.038-.041 1.552-.079v18.017a1.75 1.75 0 0 0 1.75 1.75h8.173a7.772 7.772 0 1 0 7.568-9.525zm0 12.05a4.275 4.275 0 1 1 4.276-4.27 4.28 4.28 0 0 1 -4.276 4.27z"/><path d="m76.5 96.136v-16.136a1.75 1.75 0 0 0 -3.5 0v16.136a7.774 7.774 0 1 0 3.5 0zm-1.75 11.843a4.275 4.275 0 1 1 4.274-4.274 4.279 4.279 0 0 1 -4.274 4.274z"/></g></g></svg>