<svg height="512" viewBox="0 0 128 128" width="512" xmlns="http://www.w3.org/2000/svg"><g><g><rect fill="#4980fa" height="96.199" rx="3.613" width="41" x="22.83" y="15.9"/><path d="m49.644 83.451a6.316 6.316 0 1 0 -9.837 5.24v7.788a3.522 3.522 0 0 0 3.523 3.521 3.523 3.523 0 0 0 3.523-3.523v-7.786a6.309 6.309 0 0 0 2.791-5.24z" fill="#9bdb34"/><circle cx="43.33" cy="51.582" fill="#f3eee8" r="13.379"/><path d="m44.333 44.412a7.17 7.17 0 0 0 0 14.34l60.837-2v-10.34z" fill="#9bdb34"/></g><g fill="#001d9b"><path d="m42.4 78.978a4.573 4.573 0 0 1 5.5 4.473 1.75 1.75 0 0 0 3.5 0 8.066 8.066 0 0 0 -16-1.491 8.131 8.131 0 0 0 2.657 7.592v6.927a5.273 5.273 0 0 0 10.545 0v-7.788a1.75 1.75 0 0 0 -3.5 0v7.787a1.773 1.773 0 0 1 -3.545 0v-7.787a1.747 1.747 0 0 0 -.773-1.451 4.566 4.566 0 0 1 1.616-8.262z"/><path d="m63.83 63.211a1.749 1.749 0 0 0 -1.75 1.75v43.525a1.866 1.866 0 0 1 -1.863 1.864h-33.774a1.866 1.866 0 0 1 -1.863-1.864v-66.486a1.75 1.75 0 0 0 -3.5 0v66.486a5.37 5.37 0 0 0 5.363 5.364h33.774a5.37 5.37 0 0 0 5.363-5.364v-43.525a1.749 1.749 0 0 0 -1.75-1.75z"/><path d="m22.83 36.625a1.749 1.749 0 0 0 1.75-1.75v-1.375a1.75 1.75 0 0 0 -3.5 0v1.375a1.749 1.749 0 0 0 1.75 1.75z"/><path d="m79.569 47.321 1.12.037h.059a1.75 1.75 0 0 0 .057-3.5l-1.12-.037a1.75 1.75 0 0 0 -.116 3.5z"/><path d="m105.228 44.663-16.795-.552a1.75 1.75 0 0 0 -.116 3.5l15.1.5v6.954l-59.083 1.935a5.421 5.421 0 0 1 -.058-10.841l28.408.934a1.727 1.727 0 0 0 1.806-1.693 1.749 1.749 0 0 0 -1.69-1.8l-7.22-.24v-23.846a5.37 5.37 0 0 0 -5.363-5.364h-33.774a5.37 5.37 0 0 0 -5.363 5.364v6.986a1.75 1.75 0 0 0 3.5 0v-6.986a1.866 1.866 0 0 1 1.863-1.864h33.774a1.866 1.866 0 0 1 1.863 1.864v23.731l-17.746-.583a8.92 8.92 0 1 0 .056 17.838l6.61-.216a11.617 11.617 0 1 1 -7.67-20.331 1.75 1.75 0 0 0 0-3.5 15.129 15.129 0 1 0 12.486 23.672l49.412-1.625a1.75 1.75 0 0 0 1.692-1.749v-10.339a1.75 1.75 0 0 0 -1.692-1.749z"/></g></g></svg>