<svg viewBox="0 0 511.99964 511" xmlns="http://www.w3.org/2000/svg"><path d="m489.640625 59.480469-19.472656 2.875-19.742188-19.824219 2.949219-19.46875-29.949219-12.472656-11.738281 15.804687-27.980469-.046875-11.675781-15.847656-30.003906 12.359375 2.875 19.472656-19.824219 19.742188-19.46875-2.949219-12.476563 29.949219 15.8125 11.742187-.050781 27.976563-15.847656 11.675781 12.359375 30.003906 19.472656-2.875 19.742188 19.824219-2.949219 19.46875 29.949219 12.476563 11.738281-15.808594 27.980469.046875 11.675781 15.847656 30.003906-12.359375-2.875-19.472656 19.824219-19.742188 19.46875 2.949219 12.476562-29.949219-15.808593-11.738281.046875-27.980469 15.847656-11.675781zm0 0" fill="#4dbaf6"/><path d="m439.953125 133.125c-9.800781 23.53125-36.820313 34.660156-60.351563 24.859375-23.527343-9.796875-34.660156-36.816406-24.859374-60.347656 9.800781-23.53125 36.816406-34.660157 60.347656-24.859375 23.53125 9.796875 34.660156 36.816406 24.863281 60.347656zm0 0" fill="#fff"/><path d="m278.355469 197.769531-26.625 16.007813-40.800781-16.90625-7.511719-30.160156h-51.207031l-7.511719 30.160156-40.796875 16.90625-26.628906-16.007813-36.214844 36.214844 16.003906 26.628906-16.90625 40.796875-30.15625 7.511719v51.207031l30.15625 7.515625 16.90625 40.796875-16.003906 26.625 36.214844 36.21875 26.628906-16.007812 40.796875 16.90625 7.511719 30.160156h51.207031l7.511719-30.160156 40.800781-16.90625 26.625 16.007812 36.21875-36.21875-16.007813-26.625 16.90625-40.796875 30.160156-7.515625v-51.207031l-30.160156-7.511719-16.90625-40.796875 16.007813-26.628906zm0 0" fill="#898998"/><path d="m263.269531 335.222656c0 47.203125-38.265625 85.46875-85.46875 85.46875s-85.46875-38.265625-85.46875-85.46875 38.265625-85.46875 85.46875-85.46875 85.46875 38.265625 85.46875 85.46875zm0 0" fill="#ffb954"/><path d="m177.816406 249.753906v84.460938h85.429688c-.542969-46.730469-38.570313-84.453125-85.429688-84.460938zm0 0" fill="#ff5d5d"/><path d="m323.140625 429.914062-13.40625-22.304687 13.046875-31.480469 25.269531-6.296875c4.453125-1.109375 7.582031-5.109375 7.582031-9.703125v-51.207031c0-4.589844-3.128906-8.59375-7.582031-9.699219l-25.269531-6.296875-13.046875-31.480469 13.40625-22.308593c2.367187-3.933594 1.75-8.976563-1.496094-12.222657l-36.21875-36.214843c-3.246093-3.25-8.285156-3.863281-12.222656-1.5l-22.304687 13.40625-31.484376-13.046875-6.292968-25.265625c-1.109375-4.457031-5.109375-7.582031-9.703125-7.582031h-51.207031c-4.589844 0-8.59375 3.125-9.703126 7.582031l-6.292968 25.265625-31.484375 13.046875-22.304688-13.40625c-3.933593-2.367188-8.976562-1.75-12.222656 1.5l-36.21875 36.214843c-3.246094 3.246094-3.863281 8.289063-1.496094 12.222657l13.40625 22.308593-13.046875 31.480469-25.265625 6.296875c-4.457031 1.109375-7.582031 5.109375-7.582031 9.699219v51.207031c0 4.59375 3.125 8.59375 7.582031 9.703125l25.269531 6.296875 13.046876 31.480469-13.410157 22.304687c-2.367187 3.9375-1.746093 8.976563 1.5 12.222657l36.214844 36.21875c3.25 3.246093 8.289063 3.863281 12.222656 1.5l22.308594-13.410157 31.480469 13.046876 6.296875 25.269531c1.109375 4.453125 5.109375 7.582031 9.703125 7.582031h51.207031c4.589844 0 8.589844-3.128906 9.699219-7.582031l6.296875-25.269531 31.484375-13.046876 22.304687 13.410157c3.933594 2.367187 8.976563 1.746093 12.222657-1.5l36.214843-36.21875c3.246094-3.246094 3.863281-8.285157 1.496094-12.222657zm-16.902344-66.097656-16.910156 40.796875c-1.210937 2.929688-.964844 6.261719.667969 8.980469l11.980468 19.929688-25.164062 25.167968-19.929688-11.980468c-2.71875-1.636719-6.050781-1.882813-8.980468-.667969l-40.796875 16.90625c-2.929688 1.210937-5.109375 3.742187-5.875 6.820312l-5.625 22.574219h-35.578125l-5.628906-22.578125c-.765626-3.074219-2.945313-5.605469-5.871094-6.816406l-40.796875-16.90625c-2.929688-1.214844-6.261719-.96875-8.980469.667969l-19.929688 11.980468-25.167968-25.167968 11.980468-19.929688c1.636719-2.71875 1.882813-6.050781.667969-8.980469l-16.90625-40.796875c-1.214843-2.929687-3.746093-5.109375-6.820312-5.875l-22.578125-5.625v-35.578125l22.578125-5.625c3.074219-.765625 5.605469-2.945312 6.820312-5.875l16.90625-40.796875c1.214844-2.929687.96875-6.261718-.667969-8.980468l-11.980468-19.929688 25.167968-25.167969 19.929688 11.980469c2.71875 1.636719 6.050781 1.882812 8.980469.667969l40.796875-16.90625c2.925781-1.214844 5.105468-3.742188 5.871094-6.820313l5.628906-22.574218h35.578125l5.625 22.574218c.765625 3.078125 2.945312 5.605469 5.875 6.820313l40.796875 16.90625c2.929687 1.214843 6.261718.964843 8.980468-.667969l19.929688-11.980469 25.164062 25.167969-11.980468 19.929688c-1.632813 2.71875-1.878906 6.050781-.667969 8.980468l16.910156 40.796875c1.210938 2.929688 3.742188 5.109375 6.820313 5.875l22.574218 5.625v35.578125l-22.574218 5.625c-3.078125.765625-5.609375 2.945313-6.820313 5.875zm0 0"/><path d="m177.804688 239.753906c-52.640626 0-95.46875 42.828125-95.46875 95.46875s42.828124 95.46875 95.46875 95.46875c52.640624 0 95.464843-42.828125 95.464843-95.46875s-42.824219-95.46875-95.464843-95.46875zm74.65625 84.460938h-64.644532v-63.777344c33.285156 4.433594 59.78125 30.628906 64.644532 63.777344zm-74.65625 86.476562c-41.617188 0-75.472657-33.855468-75.472657-75.46875 0-38.226562 28.578125-69.882812 65.484375-74.789062v73.78125c0 5.523437 4.476563 10 10 10h74.902344c-4.464844 37.386718-36.347656 66.476562-74.914062 66.476562zm0 0"/><path d="m324.195312 495.039062c-4.070312 3.730469-4.347656 10.054688-.613281 14.125 1.972657 2.152344 4.667969 3.242188 7.375 3.242188 2.410157 0 4.832031-.867188 6.75-2.628906.023438-.019532.074219-.0625.105469-.09375 4.039062-3.734375 4.269531-10.003906.546875-14.066406-3.734375-4.070313-10.09375-4.3125-14.164063-.578126zm0 0"/><path d="m507.875 132.851562-11.761719-8.734374.03125-17.898438 11.785157-8.683594c3.699218-2.722656 5.0625-7.613281 3.316406-11.859375l-12.359375-30.003906c-1.75-4.242187-6.160157-6.75-10.707031-6.082031l-14.484376 2.140625-12.628906-12.683594 2.195313-14.484375c.6875-4.539062-1.804688-8.964844-6.042969-10.730469l-29.949219-12.472656c-4.238281-1.765625-9.132812-.417969-11.871093 3.265625l-8.734376 11.765625-17.898437-.03125-8.683594-11.789063c-2.722656-3.699218-7.613281-5.066406-11.859375-3.316406l-30.003906 12.363282c-4.246094 1.746093-6.753906 6.164062-6.082031 10.703124l2.136719 14.484376-12.679688 12.628906-14.488281-2.195313c-4.539063-.691406-8.960938 1.804688-10.726563 6.042969l-12.476562 29.949219c-1.765625 4.238281-.414063 9.136719 3.273437 11.871093l11.761719 8.734376-.03125 17.898437-11.789062 8.683594c-3.695313 2.726562-5.0625 7.613281-3.3125 11.859375l12.359374 30.003906c1.746094 4.246094 6.15625 6.753906 10.703126 6.082031l14.488281-2.136719 12.628906 12.679688-2.195313 14.488281c-.691406 4.539063 1.800782 8.960938 6.039063 10.726563l29.949219 12.476562c4.242187 1.765625 9.136718.414063 11.875-3.269531l8.734375-11.765625 17.894531.03125 8.6875 11.789062c1.929688 2.621094 4.945312 4.070313 8.050781 4.070313 1.277344 0 2.570313-.246094 3.804688-.757813l30.007812-12.359374c4.246094-1.746094 6.753907-6.164063 6.082031-10.703126l-2.140624-14.484374 12.683593-12.628907 14.484375 2.195313c4.53125.691406 8.964844-1.804688 10.730469-6.042969l12.472656-29.949219c1.765625-4.238281.414063-9.132812-3.269531-11.871094zm-27.734375 4.316407 9.539063 7.082031-6.46875 15.523438-11.742188-1.78125c-3.132812-.476563-6.308594.5625-8.554688 2.800781l-19.824218 19.742187c-2.25 2.238282-3.300782 5.410156-2.835938 8.546875l1.730469 11.742188-15.554687 6.40625-7.039063-9.554688c-1.882813-2.554687-4.863281-4.0625-8.035156-4.070312l-27.976563-.046875c-.007812 0-.011718 0-.019531 0-3.164063 0-6.140625 1.496094-8.027344 4.035156l-7.082031 9.539062-15.523438-6.46875 1.78125-11.742187c.476563-3.132813-.5625-6.308594-2.800781-8.554687l-19.742187-19.828126c-2.238282-2.242187-5.40625-3.300781-8.546875-2.832031l-11.742188 1.730469-6.410156-15.554688 9.558594-7.039062c2.554687-1.882812 4.0625-4.863281 4.070312-8.035156l.046875-27.976563c.007813-3.171875-1.492187-6.15625-4.039062-8.046875l-9.535156-7.082031 6.46875-15.523437 11.742187 1.78125c3.132813.480468 6.308594-.5625 8.554687-2.800782l19.828126-19.742187c2.246093-2.238281 3.296874-5.410157 2.835937-8.546875l-1.734375-11.742188 15.554688-6.410156 7.039062 9.558594c1.882812 2.554687 4.859375 4.0625 8.03125 4.066406l27.980469.050781h.019531c3.160156 0 6.140625-1.496093 8.027344-4.035156l7.082031-9.539063 15.523437 6.46875-1.78125 11.742188c-.476562 3.132812.5625 6.308594 2.800782 8.554688l19.742187 19.824218c2.238281 2.25 5.414063 3.304688 8.546875 2.835938l11.742188-1.730469 6.40625 15.554687-9.554688 7.039063c-2.554687 1.882813-4.0625 4.859375-4.070312 8.03125l-.046875 27.980469c-.007813 3.167968 1.492187 6.15625 4.035156 8.046875zm0 0"/><path d="m418.933594 63.542969c-13.84375-5.765625-29.105469-5.792969-42.972656-.082031-13.867188 5.714843-24.683594 16.484374-30.449219 30.332031-11.902344 28.582031 1.667969 61.519531 30.25 73.421875 7.035156 2.933594 14.328125 4.316406 21.511719 4.316406 22.003906 0 42.9375-13.015625 51.910156-34.5625 11.902344-28.582031-1.667969-61.519531-30.25-73.425781zm11.789062 65.738281c-7.664062 18.402344-28.871094 27.140625-47.273437 19.472656-18.402344-7.664062-27.140625-28.871094-19.476563-47.273437 3.714844-8.914063 10.675782-15.851563 19.601563-19.527344 4.445312-1.832031 9.109375-2.746094 13.773437-2.746094 4.710938 0 9.417969.933594 13.898438 2.800781 18.402344 7.664063 27.140625 28.871094 19.476562 47.273438zm0 0"/><path d="m242.890625 82.984375c.890625.246094 1.785156.363281 2.667969.363281 4.382812 0 8.40625-2.90625 9.632812-7.339844.824219-2.996093 1.757813-6 2.773438-8.9375 1.808594-5.21875-.960938-10.914062-6.179688-12.71875-5.21875-1.808593-10.914062.960938-12.71875 6.179688-1.152344 3.335938-2.214844 6.75-3.15625 10.152344-1.46875 5.324218 1.65625 10.832031 6.980469 12.300781zm0 0"/><path d="m260.710938 36.40625c1.703124 1.140625 3.632812 1.683594 5.542968 1.683594 3.226563 0 6.394532-1.5625 8.324219-4.445313 1.722656-2.582031 3.550781-5.144531 5.4375-7.613281 3.351563-4.390625 2.507813-10.667969-1.882813-14.015625-4.390624-3.351563-10.664062-2.507813-14.015624 1.882813-2.140626 2.804687-4.21875 5.710937-6.171876 8.640624-3.066406 4.589844-1.828124 10.796876 2.765626 13.867188zm0 0"/><path d="m240.042969 132.820312c.160156 0 .320312-.003906.480469-.011718 5.515624-.261719 9.773437-4.941406 9.515624-10.457032-.113281-2.339843-.167968-4.707031-.167968-7.039062 0-.777344.007812-1.554688.019531-2.332031.085937-5.523438-4.324219-10.066407-9.84375-10.152344-.054687 0-.105469 0-.15625 0-5.453125 0-9.910156 4.375-9.996094 9.84375-.015625.882813-.019531 1.761719-.019531 2.644531 0 2.644532.0625 5.328125.1875 7.976563.253906 5.355469 4.675781 9.527343 9.980469 9.527343zm0 0"/><path d="m404.53125 285.386719c-16.542969 0-30 13.457031-30 29.996093 0 12.976563 8.28125 24.050782 19.835938 28.222657-1.738282 46.539062-17.929688 90.203125-47.113282 126.746093-3.445312 4.316407-2.738281 10.609376 1.574219 14.054688 1.84375 1.472656 4.046875 2.183594 6.234375 2.183594 2.933594 0 5.84375-1.285156 7.820312-3.757813 32.015626-40.097656 49.71875-88.035156 51.484376-139.117187 11.722656-4.082032 20.15625-15.238282 20.15625-28.328125.003906-16.542969-13.453126-30-29.992188-30zm1.207031 39.917969c-.398437-.050782-.796875-.082032-1.207031-.082032s-.8125.03125-1.210938.082032c-4.941406-.601563-8.789062-4.816407-8.789062-9.921876 0-5.511718 4.484375-9.996093 10-9.996093 5.511719 0 9.996094 4.484375 9.996094 9.996093 0 5.105469-3.84375 9.320313-8.789063 9.921876zm0 0"/></svg>