<svg id="Layer_1" enable-background="new 0 0 512.002 512.002" height="512" viewBox="0 0 512.002 512.002" width="512" xmlns="http://www.w3.org/2000/svg"><g><g clip-rule="evenodd" fill-rule="evenodd"><g fill="#99ebfa"><ellipse cx="61.001" cy="95.002" rx="25" ry="25" transform="matrix(.383 -.924 .924 .383 -50.114 115.004)"/><ellipse cx="61.001" cy="477.002" rx="25" ry="25" transform="matrix(.987 -.16 .16 .987 -75.62 15.931)"/><ellipse cx="451.001" cy="477.002" rx="25" ry="25" transform="matrix(1 -.015 .015 1 -7.146 6.86)"/><ellipse cx="451.001" cy="95.002" rx="25" ry="25" transform="matrix(.986 -.165 .165 .986 -9.487 75.548)"/></g><g><path d="m152.909 192.919-28.002 18.668c-9.19 6.127-11.674 18.544-5.547 27.734s18.544 11.674 27.734 5.547l108.907-72.604 108.906 72.604c9.19 6.127 21.607 3.643 27.734-5.547s3.643-21.607-5.547-27.734l-96.396-64.264-4.698-3.132-18.539-12.359c-6.552-4.577-15.503-4.946-22.554-.245l-18.907 12.605-4.698 3.132z" fill="#ff5d7d"/><path d="m256.001 172.264-108.906 72.604v20.682 47.545 70.681h78.906v-90h60v90h78.906v-138.908z" fill="#fff"/><path d="m226.001 293.776h60v90h-60z" fill="#ffda8f"/></g></g><g><path d="m256 234.32c-5.523 0-10 4.48-10 10.003s4.477 10 10 10 10-4.477 10-10v-.007c0-5.523-4.477-9.996-10-9.996z"/><path d="m206.504 40.503c13.221-13.222 30.799-20.503 49.497-20.503s36.276 7.281 49.497 20.503c1.953 1.953 4.512 2.929 7.071 2.929s5.119-.976 7.071-2.929c3.905-3.905 3.905-10.237 0-14.143-16.999-16.998-39.6-26.36-63.639-26.36s-46.641 9.362-63.64 26.36c-3.905 3.905-3.905 10.237 0 14.143s10.237 3.905 14.143 0z"/><path d="m284.285 71.716c2.559 0 5.119-.976 7.071-2.929 3.905-3.905 3.905-10.237 0-14.143-9.444-9.444-22-14.645-35.355-14.645s-25.912 5.201-35.355 14.645c-3.905 3.905-3.905 10.237 0 14.143s10.237 3.905 14.143 0c5.666-5.667 13.2-8.787 21.213-8.787s15.547 3.121 21.213 8.787c1.951 1.953 4.511 2.929 7.07 2.929z"/><path d="m245.997 90c0 5.523 4.477 10 10 10h.008c5.523 0 9.996-4.477 9.996-10s-4.481-10-10.004-10-10 4.477-10 10z"/><path d="m461.001 443.465v-109.689c0-5.523-4.477-10-10-10h-76.093v-28.176h76.093c5.523 0 10-4.477 10-10v-157.062c14.44-4.314 25-17.712 25-33.536 0-19.299-15.701-35-35-35s-35 15.701-35 35c0 15.824 10.56 29.222 25 33.536v147.062h-66.093v-17.389c2.313.08 4.651-.102 6.977-.567 7.857-1.572 14.633-6.109 19.078-12.776 9.175-13.763 5.443-32.425-8.32-41.601l-119.553-79.702c-10.185-7.056-23.41-7.176-33.729-.298l-22.558 15.039c-4.595 3.063-5.837 9.272-2.773 13.867s9.272 5.837 13.867 2.773l22.558-15.039c3.452-2.301 7.88-2.254 11.281.122.06.042.119.083.18.123l119.633 79.755c4.587 3.059 5.832 9.279 2.773 13.867-1.481 2.222-3.74 3.735-6.359 4.259-2.619.522-5.285-.004-7.508-1.485l-108.906-72.604c-3.358-2.239-7.735-2.239-11.094 0l-108.907 72.604c-2.222 1.482-4.888 2.008-7.507 1.485-2.619-.524-4.877-2.037-6.359-4.259-1.481-2.222-2.009-4.888-1.485-7.507s2.037-4.877 4.259-6.359l22.553-15.036c4.595-3.063 5.837-9.272 2.773-13.867-3.063-4.595-9.272-5.838-13.867-2.773l-22.553 15.036c-6.667 4.445-11.205 11.22-12.776 19.078-1.571 7.857.011 15.856 4.456 22.523s11.22 11.205 19.078 12.776c1.98.396 3.97.592 5.945.592.345 0 .687-.026 1.031-.038v17.401h-66.095v-147.062c14.44-4.314 25-17.712 25-33.536 0-19.299-15.701-35-35-35s-35 15.701-35 35c0 15.824 10.559 29.222 25 33.536v157.062c0 5.523 4.477 10 10 10h76.093v28.176h-76.093c-5.523 0-10 4.477-10 10v109.689c-14.44 4.314-25 17.712-25 33.537 0 19.299 15.701 35 35 35s35-15.701 35-35c0-15.824-10.56-29.223-25-33.537v-99.689h66.093v30h-10c-5.523 0-10 4.477-10 10s4.477 10 10 10h257.814c5.523 0 10-4.477 10-10s-4.477-10-10-10h-10v-30h66.093v99.689c-14.44 4.314-25 17.712-25 33.537 0 19.299 15.701 35 35 35s35-15.701 35-35c0-15.824-10.56-29.223-25-33.537zm-25-348.463c0-8.271 6.729-15 15-15s15 6.729 15 15-6.729 15-15 15-15-6.73-15-15zm-390 0c0-8.271 6.729-15 15-15s15 6.729 15 15-6.729 15-15 15c-8.271-.001-15-6.73-15-15zm30 382c0 8.271-6.729 15-15 15s-15-6.729-15-15 6.729-15 15-15 15 6.729 15 15zm200-103.226h-40v-70h40zm78.906 0h-58.906v-80c0-5.523-4.477-10-10-10h-60c-5.523 0-10 4.477-10 10v80h-58.906v-123.556l98.907-65.937 98.906 65.937v123.556c-.001-.001-.001-.001-.001 0zm96.094 118.226c-8.271 0-15-6.729-15-15s6.729-15 15-15 15 6.729 15 15-6.729 15-15 15z"/><path d="m184.907 181.587c5.523 0 10-4.477 10-10s-4.477-10-10-10h-.007c-5.523 0-9.996 4.477-9.996 10s4.48 10 10.003 10z"/></g></g></svg>