<svg viewBox="0 0 512 512" xmlns="http://www.w3.org/2000/svg"><path d="m482 293.9375h-452c-11.046875 0-20 8.953125-20 20v128c0 11.046875 8.953125 20 20 20h452c11.046875 0 20-8.953125 20-20v-128c0-11.046875-8.953125-20-20-20zm0 0" fill="#c9f3ff"/><path d="m64 461.9375h80v40.0625h-80zm0 0" fill="#686c83"/><path d="m368 461.9375h80v40.0625h-80zm0 0" fill="#686c83"/><path d="m113.25 91.25c-12.148438 0-22 9.851562-22 22v180.6875h44v-180.6875c0-12.148438-9.851562-22-22-22zm0 0" fill="#c9f3ff"/><path d="m398.75 91.25c-12.148438 0-22 9.851562-22 22v180.6875h44v-180.6875c0-12.148438-9.851562-22-22-22zm0 0" fill="#c9f3ff"/><g fill="#4dbaf6"><path d="m448 377.9375c0 13.253906-10.746094 24-24 24s-24-10.746094-24-24 10.746094-24 24-24 24 10.746094 24 24zm0 0"/><path d="m352.0625 377.9375c0 13.253906-10.746094 24-24 24s-24-10.746094-24-24 10.746094-24 24-24 24 10.746094 24 24zm0 0"/><path d="m256.128906 377.9375c0 13.253906-10.746094 24-24 24-13.257812 0-24-10.746094-24-24s10.742188-24 24-24c13.253906 0 24 10.746094 24 24zm0 0"/></g><path d="m113.25 40c-40.390625 0-73.25 32.859375-73.25 73.25 0 5.523438 4.476562 10 10 10s10-4.476562 10-10c0-29.363281 23.886719-53.25 53.25-53.25s53.25 23.886719 53.25 53.25c0 5.523438 4.476562 10 10 10s10-4.476562 10-10c0-40.390625-32.859375-73.25-73.25-73.25zm0 0"/><path d="m10 123.25c5.523438 0 10-4.476562 10-10 0-51.417969 41.832031-93.25 93.25-93.25s93.25 41.832031 93.25 93.25c0 5.523438 4.476562 10 10 10s10-4.476562 10-10c0-62.445312-50.804688-113.25-113.25-113.25s-113.25 50.804688-113.25 113.25c0 5.523438 4.476562 10 10 10zm0 0"/><path d="m420.75 182.589844c-2.628906 0-5.210938 1.070312-7.070312 2.929687-1.859376 1.859375-2.929688 4.441407-2.929688 7.070313 0 2.640625 1.070312 5.210937 2.929688 7.082031 1.859374 1.859375 4.441406 2.917969 7.070312 2.917969s5.210938-1.058594 7.070312-2.917969c1.859376-1.871094 2.929688-4.441406 2.929688-7.082031 0-2.628906-1.070312-5.210938-2.929688-7.070313-1.859374-1.859375-4.441406-2.929687-7.070312-2.929687zm0 0"/><path d="m398.75 40c-40.390625 0-73.25 32.859375-73.25 73.25 0 5.523438 4.476562 10 10 10s10-4.476562 10-10c0-29.363281 23.886719-53.25 53.25-53.25s53.25 23.886719 53.25 53.25c0 5.523438 4.476562 10 10 10s10-4.476562 10-10c0-40.390625-32.859375-73.25-73.25-73.25zm0 0"/><path d="m295.5 123.25c5.523438 0 10-4.476562 10-10 0-51.417969 41.832031-93.25 93.25-93.25s93.25 41.832031 93.25 93.25c0 5.523438 4.476562 10 10 10s10-4.476562 10-10c0-62.445312-50.804688-113.25-113.25-113.25s-113.25 50.804688-113.25 113.25c0 5.523438 4.476562 10 10 10zm0 0"/><path d="m424 343.9375c-18.746094 0-34 15.253906-34 34 0 18.75 15.253906 34 34 34s34-15.25 34-34c0-18.746094-15.253906-34-34-34zm0 48c-7.71875 0-14-6.28125-14-14s6.28125-14 14-14 14 6.28125 14 14-6.28125 14-14 14zm0 0"/><path d="m328.0625 343.9375c-18.746094 0-34 15.253906-34 34 0 18.75 15.253906 34 34 34 18.75 0 34-15.25 34-34 0-18.746094-15.25-34-34-34zm0 48c-7.71875 0-14-6.28125-14-14s6.28125-14 14-14 14 6.28125 14 14-6.28125 14-14 14zm0 0"/><path d="m232.128906 343.9375c-18.75 0-34 15.253906-34 34 0 18.75 15.25 34 34 34 18.746094 0 34-15.25 34-34 0-18.746094-15.253906-34-34-34zm0 48c-7.722656 0-14-6.28125-14-14s6.277344-14 14-14c7.71875 0 14 6.28125 14 14s-6.28125 14-14 14zm0 0"/><path d="m482 283.9375h-51.25v-52.4375c0-5.523438-4.476562-10-10-10s-10 4.476562-10 10v52.4375h-24v-170.6875c0-6.617188 5.382812-12 12-12s12 5.382812 12 12v37.75c0 5.523438 4.476562 10 10 10s10-4.476562 10-10v-37.75c0-17.644531-14.355469-32-32-32s-32 14.355469-32 32v170.6875h-221.5v-170.6875c0-17.644531-14.355469-32-32-32s-32 14.355469-32 32v170.6875h-51.25c-16.542969 0-30 13.457031-30 30v128c0 16.542969 13.457031 30 30 30h24v30.0625c0 5.523438 4.476562 10 10 10h80c5.523438 0 10-4.476562 10-10v-30.0625h204v30.0625c0 5.523438 4.476562 10 10 10h80c5.523438 0 10-4.476562 10-10v-30.0625h24c16.542969 0 30-13.457031 30-30v-128c0-16.542969-13.457031-30-30-30zm-380.75-170.6875c0-6.617188 5.382812-12 12-12s12 5.382812 12 12v170.6875h-24zm32.75 378.75h-60v-20.0625h60zm304 0h-60v-20.0625h60zm54-50.0625c0 5.515625-4.484375 10-10 10h-452c-5.515625 0-10-4.484375-10-10v-128c0-5.511719 4.484375-10 10-10h452c5.515625 0 10 4.488281 10 10zm0 0"/><path d="m119 367.9375h-55c-5.523438 0-10 4.476562-10 10s4.476562 10 10 10h55c5.523438 0 10-4.476562 10-10s-4.476562-10-10-10zm0 0"/><path d="m161.671875 367.941406c-2.640625 0-5.210937 1.070313-7.070313 2.929688-1.871093 1.859375-2.929687 4.4375-2.929687 7.070312 0 2.628906 1.058594 5.207032 2.929687 7.070313 1.859376 1.859375 4.429688 2.929687 7.070313 2.929687 2.628906 0 5.207031-1.070312 7.066406-2.929687 1.863281-1.863281 2.933594-4.441407 2.933594-7.070313 0-2.632812-1.070313-5.210937-2.933594-7.070312-1.859375-1.859375-4.4375-2.929688-7.066406-2.929688zm0 0"/></svg>